HIERARCHY
ROOT hip
{
	OFFSET 0.000000 0.000000 0.000000 
	CHANNELS 6 Xposition Yposition Zposition Xrotation Zrotation Yrotation
	JOINT abdomen
	{
		OFFSET 0.000000 3.402643 0.000000 
		CHANNELS 3 Xrotation Zrotation Yrotation
		JOINT chest
		{
			OFFSET 0.000000 8.438565 -0.680529 
			CHANNELS 3 Xrotation Zrotation Yrotation
			JOINT neck
			{
				OFFSET 0.000000 10.207942 -0.272212 
				CHANNELS 3 Xrotation Zrotation Yrotation
				JOINT head
				{
					OFFSET 0.000000 3.130431 0.000000 
					CHANNELS 3 Xrotation Zrotation Yrotation
					End Site
					{
						OFFSET 0.000000 3.130435 0.000000 
					}
				}
			}
			JOINT lCollar
			{
				OFFSET 3.470700 6.669187 -0.816635 
				CHANNELS 3 Yrotation Zrotation Xrotation
				JOINT lShldr
				{
					OFFSET 3.198488 0.000000 0.000000 
					CHANNELS 3 Zrotation Yrotation Xrotation
					JOINT lForeArm
					{
						OFFSET 10.139888 0.000000 0.000000 
						CHANNELS 3 Yrotation Zrotation Xrotation
						JOINT lHand
						{
							OFFSET 8.370511 0.000000 0.000000 
							CHANNELS 3 Zrotation Yrotation Xrotation
							End Site
							{
								OFFSET 4.083176 0.000000 0.000000 
							}
						}
					}
				}
			}
			JOINT rCollar
			{
				OFFSET -3.470700 6.669187 -0.816635 
				CHANNELS 3 Yrotation Zrotation Xrotation
				JOINT rShldr
				{
					OFFSET -3.198488 0.000000 0.000000 
					CHANNELS 3 Zrotation Yrotation Xrotation
					JOINT rForeArm
					{
						OFFSET -10.139888 0.000000 0.000000 
						CHANNELS 3 Yrotation Zrotation Xrotation
						JOINT rHand
						{
							OFFSET -8.370511 0.000000 0.000000 
							CHANNELS 3 Zrotation Yrotation Xrotation
							End Site
							{
								OFFSET -4.083176 0.000000 0.000000 
							}
						}
					}
				}
			}
		}
	}
	JOINT lThigh
	{
		OFFSET 5.308129 -1.633274 1.361059 
		CHANNELS 3 Xrotation Zrotation Yrotation
		JOINT lShin
		{
			OFFSET -2.041588 -20.007561 0.000000 
			CHANNELS 3 Xrotation Zrotation Yrotation
			JOINT lFoot
			{
				OFFSET 0.000000 -19.190928 -1.224953 
				CHANNELS 3 Xrotation Yrotation Zrotation
				End Site
				{
					OFFSET 0.000000 -2.449906 4.627600 
				}
			}
		}
	}
	JOINT rThigh
	{
		OFFSET -5.308129 -1.633274 1.361059 
		CHANNELS 3 Xrotation Zrotation Yrotation
		JOINT rShin
		{
			OFFSET 2.041588 -20.007561 0.000000 
			CHANNELS 3 Xrotation Zrotation Yrotation
			JOINT rFoot
			{
				OFFSET 0.000000 -19.190928 -1.224953 
				CHANNELS 3 Xrotation Yrotation Zrotation
				End Site
				{
					OFFSET 0.000000 -2.449906 4.627600 
				}
			}
		}
	}
}
MOTION
Frames: 14
Frame Time: 0.011111
20.052979 44.823288 24.048698 -1.628257 -0.622969 15.502554 27.832613 14.689327 -20.632849 -26.578125 15.174931 -7.510041 -12.698574 -5.055040 -2.194626 34.233501 11.699011 -1.789600 6.655530 -7.385053 2.814211 59.254185 -112.919411 -40.351025 -74.311333 8.418831 19.259592 8.524705 12.647240 -54.681046 -7.245022 1.299557 2.988899 70.162125 9.779016 -11.024905 60.083809 -9.287100 12.454877 -8.534408 -12.637552 62.142433 -4.397430 -5.320885 24.260889 66.097267 -2.040680 -8.635787 7.598868 -26.715456 -1.878101 -41.796486 -2.344037 -8.910277 65.190269 2.133405 8.555966 -20.354053 -4.465315 1.121237 
20.344543 45.019318 24.279278 -1.240943 -1.485166 15.807427 27.577385 15.241555 -19.326057 -27.411909 14.935091 -7.337910 -11.896377 -5.518569 -2.467552 33.738438 12.067655 -2.251979 6.655530 -7.385053 2.814211 59.330109 -110.808350 -34.677841 -76.987328 7.675494 20.700880 8.524705 12.647240 -49.056046 -7.245022 1.299557 2.988899 69.969315 9.619585 -11.178503 59.560970 -9.239450 12.212188 -8.534408 -12.637552 63.206890 -6.256799 -3.301372 24.607103 67.190079 -1.900326 -8.698274 4.719385 -25.893095 -3.148138 -41.690720 -2.059306 -9.220555 64.820015 2.168221 8.510286 -20.739380 -4.456024 1.044859 
20.586634 45.180195 24.535990 -0.984683 -2.006489 16.355028 27.293114 15.327503 -18.309299 -27.430071 14.727710 -7.073614 -11.417777 -5.763098 -2.815224 32.863407 12.516392 -2.850672 6.655530 -7.385053 2.814211 59.889091 -111.146049 -35.048615 -77.383125 7.545472 20.925333 8.524705 12.647240 -48.304089 -7.245022 1.299557 2.988899 69.933846 10.318855 -11.496437 58.519142 -9.142685 11.755889 -8.534408 -12.637552 63.577984 -7.133025 -1.711214 24.213034 68.487007 -1.744463 -8.782122 2.498879 -23.765240 -3.925870 -41.400864 -2.187123 -9.596575 64.469261 2.225828 8.469895 -20.802124 -4.376605 1.090043 
20.825924 45.386501 24.846849 -1.082170 -2.055029 17.356161 27.293623 15.070782 -17.660858 -27.205620 14.491040 -6.820124 -11.112030 -5.870414 -3.290648 31.918974 12.881937 -3.780509 6.655530 -7.385053 2.814211 60.465725 -111.318611 -35.144505 -77.813416 7.393521 21.173162 8.524705 12.647240 -47.376358 -7.245022 1.299557 2.988899 70.015541 11.537268 -12.806339 56.798988 -8.941032 11.003552 -8.534408 -12.637552 62.728374 -7.459706 -0.518350 23.623323 69.626381 -1.579657 -8.873284 1.327157 -26.208433 -4.707230 -40.446796 -2.948771 -10.232100 64.058449 2.265862 8.462093 -21.030909 -4.153682 1.115998 
21.040318 45.566669 25.059999 -0.987463 -2.157560 17.627720 27.474215 14.545771 -16.508989 -27.277143 14.368090 -6.463125 -10.821062 -6.205243 -3.729208 31.343222 13.571593 -4.535738 6.655530 -7.385053 2.814211 61.454929 -111.599617 -35.799603 -78.289711 7.216882 21.444918 8.524705 12.647240 -46.585339 -7.245022 1.299557 2.988899 69.994896 12.607849 -14.435482 55.062992 -8.692973 10.259326 -8.534408 -12.637552 61.009628 -8.393509 0.826214 23.583782 70.805527 -1.441735 -8.944342 -1.849962 -24.927048 -5.885913 -39.945164 -3.036184 -10.117195 63.639019 2.314583 8.419991 -21.372923 -4.310255 1.007724 
21.257513 45.760216 25.218695 -0.876634 -2.342197 17.449732 27.810108 13.968779 -15.107214 -27.319551 14.275156 -6.040176 -10.772918 -6.765795 -4.002210 31.154081 14.810915 -4.865339 6.655530 -7.385053 2.814211 62.530273 -111.546013 -36.246586 -78.895561 6.976949 21.801373 8.524705 12.647240 -45.364639 -7.245022 1.299557 2.988899 69.802376 13.968076 -15.096574 53.605030 -8.441711 9.637619 -8.534408 -12.637552 60.745953 -9.490083 2.351413 23.868387 71.944115 -1.286847 -9.035523 -4.651918 -23.049786 -6.655262 -39.590858 -2.713339 -9.581011 63.131447 2.373266 8.376524 -21.472475 -4.631355 0.885734 
21.566504 46.009773 25.470119 -1.219752 -1.887095 17.690493 28.302689 13.198154 -14.307961 -27.247828 14.089675 -5.726517 -10.518916 -7.274629 -4.328187 30.858826 15.774989 -5.353668 6.655530 -7.385053 2.814211 63.651024 -111.365685 -36.545311 -79.509087 6.710230 22.168894 8.524705 12.647240 -43.772835 -7.245022 1.299557 2.988899 69.244301 15.154088 -15.220168 51.901978 -8.119097 8.934980 -8.534408 -12.637552 60.433453 -9.281302 3.060047 23.826488 72.762856 -1.198808 -9.070706 -7.564601 -21.367487 -7.355575 -38.248119 -3.427082 -9.467507 62.554882 2.441544 8.342337 -21.659580 -4.435175 0.908806 
21.818863 46.214207 25.647175 -1.443236 -1.718725 17.675791 28.875561 12.509983 -13.241982 -27.442348 14.112547 -5.415116 -10.093915 -7.576968 -4.731634 30.322218 16.110245 -6.107743 6.655530 -7.385053 2.814211 65.121918 -111.656815 -38.214386 -79.734100 6.608284 22.303255 8.524705 12.647240 -43.020885 -7.245022 1.299557 2.988899 68.555290 15.262485 -13.027408 51.566910 -8.053244 8.800989 -8.534408 -12.637552 61.761578 -9.569901 4.179280 23.844809 73.697342 -1.072500 -9.123930 -9.756019 -19.552187 -7.622120 -37.224735 -3.593780 -9.200763 61.871117 2.524274 8.287956 -22.005539 -4.367400 0.902694 
22.011787 46.419895 25.743013 -1.472963 -2.221735 17.523685 29.445116 12.362830 -11.829701 -27.627825 14.171011 -5.075912 -9.946060 -7.926719 -4.970885 29.708450 16.685354 -6.546670 6.655530 -7.385053 2.814211 66.511238 -111.682442 -39.801067 -79.920433 6.521279 22.413372 8.524705 12.647240 -42.386124 -7.245022 1.299557 2.988899 67.838379 15.725483 -10.678423 51.409580 -8.020453 8.739898 -8.534408 -12.637552 62.699081 -10.757313 6.106638 23.751677 74.718750 -0.925722 -9.185643 -11.202305 -17.882278 -7.570363 -36.678295 -2.861305 -8.755134 61.070232 2.607536 8.214202 -22.038500 -4.849026 0.693000 
22.247343 46.669758 25.912603 -1.627731 -2.306236 17.953556 29.610363 12.164432 -11.058836 -28.387403 13.908868 -4.948175 -8.482062 -8.479503 -5.336406 28.884197 17.658222 -6.905046 6.655530 -7.385053 2.814211 69.257874 -112.751801 -42.862751 -80.097046 6.438545 22.531918 8.524705 12.647240 -41.907604 -7.245022 1.299557 2.988899 67.076752 15.593465 -9.377756 50.780918 -7.883022 8.477428 -8.534408 -12.637552 62.210796 -11.443279 7.399052 23.194389 75.389740 -0.828577 -9.227482 -12.711521 -16.393637 -7.538118 -35.760143 -3.007808 -8.744062 60.317635 2.705333 8.151192 -21.905123 -5.115445 0.634960 
22.461737 46.935814 26.061344 -1.466900 -2.202967 18.255842 29.783388 11.596564 -10.451148 -27.744228 13.845012 -4.623758 -9.317646 -8.614361 -5.531778 28.703436 18.041403 -7.440486 6.655530 -7.385053 2.814211 70.615959 -112.123802 -43.704781 -80.417793 6.278513 22.726755 8.524705 12.647240 -40.618542 -7.245022 1.299557 2.988899 66.639870 17.403984 -8.689983 50.038769 -7.716546 8.178866 -8.534408 -12.637552 60.921734 -12.420950 8.357899 22.539585 76.002785 -0.750891 -9.259529 -14.140596 -14.584188 -7.304840 -35.143089 -3.310157 -8.508427 59.409081 2.802822 8.054958 -21.853888 -5.400211 0.552126 
22.842922 47.100418 26.092457 -1.315736 -1.474347 18.505514 30.313742 11.065078 -9.849596 -28.050613 13.146727 -4.414195 -9.316715 -8.696334 -5.746865 28.268814 18.329370 -7.893429 6.655530 -7.385053 2.814211 72.680237 -112.040993 -45.104141 -80.800308 6.082555 22.976870 8.524705 12.647240 -38.470104 -7.245022 1.299557 2.988899 66.148438 18.620657 -8.140689 49.424271 -7.577796 7.933049 -8.534408 -12.637552 59.378769 -12.691473 7.836357 21.618629 76.315010 -0.721439 -9.258677 -15.675146 -12.169735 -6.776063 -34.538982 -5.068146 -8.948053 58.733971 2.880973 8.004373 -21.403992 -4.561044 0.909181 
22.929737 47.345306 26.403315 -1.698056 -2.962493 17.517094 30.302490 11.360965 -7.913399 -27.872385 13.108606 -3.915203 -9.034501 -8.739972 -5.943422 28.078663 18.517712 -8.199457 6.655530 -7.385053 2.814211 75.058891 -112.443810 -48.880894 -80.455124 6.260806 22.750782 8.524705 12.647240 -39.661507 -7.245022 1.299557 2.988899 65.607315 19.301798 -7.537571 49.141888 -7.504392 7.818703 -8.534408 -12.637552 57.445168 -14.000614 11.595304 21.993952 76.946732 -0.623230 -9.294827 -16.128696 -10.890463 -6.404168 -33.505737 -2.050777 -7.490199 57.755737 2.988651 7.915055 -22.112955 -5.896743 0.319935 
23.174938 47.547569 26.494177 -1.337083 -2.372709 18.253473 30.310064 10.674133 -8.017418 -28.468781 12.887317 -3.927398 -8.729472 -8.902312 -6.178256 27.995939 18.935457 -8.536047 6.655530 -7.385053 2.814211 77.553955 -112.846436 -52.299145 -80.189789 6.393665 22.582541 8.524705 12.647240 -40.120495 -7.245022 1.299557 2.988899 65.135506 19.869066 -7.246913 49.048573 -7.483430 7.778763 -8.534408 -12.637552 55.267437 -15.024705 11.457384 20.601936 77.083321 -0.613344 -9.296466 -16.866299 -7.762869 -5.404920 -33.147186 -3.348393 -7.599892 57.051086 3.057044 7.855006 -22.274790 -5.737586 0.354298 
